<svg viewBox="157.62 335.04 238.13188717948717 362.05" xml:space="preserve" y="0px" x="0px" id="Layer_1" version="1.1" xmlns:xlink="http://www.w3.org/1999/xlink" xmlns="http://www.w3.org/2000/svg" style="max-height: 500px" width="238.13188717948717" height="362.05">
<path d="M268.178284,696.246155   C256.589386,693.593750 247.707245,686.570923 238.265076,680.721313   C223.970947,671.865723 209.094498,663.876221 195.671310,653.696045   C175.425110,638.341309 164.597229,617.217590 159.702789,592.742188   C157.937134,583.912781 157.586258,574.944763 157.618774,565.931824   C157.728867,535.434204 157.644745,504.935913 157.666946,474.437897   C157.679871,456.681610 165.596573,448.722900 183.221527,448.658783   C186.362152,448.647339 189.502823,448.657104 193.473419,448.657104   C189.707932,436.926727 181.700592,429.423157 173.306763,421.749146   C183.822174,420.920685 193.153336,424.233185 202.016281,429.395935   C211.003937,434.631287 218.093964,442.070740 225.435318,449.494476   C220.196899,419.691010 208.267136,393.195801 187.613937,370.715057   C190.073578,368.882202 192.076385,370.046875 194.030106,370.630432   C213.007141,376.298950 226.362122,389.375183 237.988464,404.504974   C247.081558,416.338135 253.655258,429.637482 259.171967,443.463318   C259.898163,445.283264 260.381287,447.224884 262.790863,449.429535   C261.160919,410.246399 260.084198,371.979584 245.493713,335.038849   C251.066620,335.845642 253.864197,339.225677 256.625275,342.381775   C267.572845,354.895477 274.623077,369.535706 279.171967,385.389648   C282.427917,396.737366 284.478394,408.345886 285.411499,420.137512   C285.538055,421.736755 286.018188,423.308014 286.396912,425.203979   C298.114838,396.336609 315.514374,373.221161 345.658447,361.783539   C324.917511,387.551483 316.929810,418.180389 310.423584,450.180420   C313.297821,449.409882 313.765930,447.356659 314.608032,445.805298   C322.455048,431.349335 331.438324,417.830872 344.886169,407.824982   C353.547577,401.380402 363.420197,398.200867 373.946045,396.780029   C376.012756,396.501099 378.234314,396.232361 381.095886,397.654449   C373.435791,404.858582 365.902557,411.769958 360.378754,420.451721   C354.805695,429.210938 350.785492,438.547028 348.248047,449.674896   C353.703827,449.674896 358.462708,449.569153 363.214783,449.704010   C368.184845,449.844971 373.161346,449.225647 378.122711,450.514282   C388.700317,453.261749 394.069244,460.520172 393.768097,472.881653   C392.927948,507.372253 394.000214,541.875305 393.237976,576.355469   C392.452087,611.906677 377.329102,640.259949 347.558167,660.010437   C331.052887,670.960266 313.925964,680.987305 296.911652,691.149597   C288.230103,696.334961 278.729034,698.398071 268.178284,696.246155  M177.959549,589.696350   C181.963882,609.850159 191.182892,627.070190 207.753754,639.518250   C225.474564,652.830139 245.203781,663.094727 263.775787,675.129944   C271.671021,680.246277 279.243439,679.929688 287.133759,675.064331   C302.013275,665.889282 316.957153,656.812805 332.013367,647.931213   C360.484314,631.136414 374.313293,605.937073 374.628174,573.273193   C374.941223,540.797546 374.697296,508.316528 374.688812,475.837860   C374.686859,468.365479 374.670410,468.342804 367.174225,468.342194   C306.047638,468.337219 244.921036,468.339325 183.794449,468.345734   C176.573654,468.346497 176.324905,468.603119 176.323181,476.076935   C176.316147,506.556946 176.349060,537.037048 176.301346,567.516907   C176.290146,574.677246 176.294693,581.819885 177.959549,589.696350  z" stroke="none" opacity="1.000000" fill="#2a9d8f"/>
<path d="M655.547607,551.640503   C659.891113,569.049438 664.124878,586.066467 668.487305,603.600647   C671.178467,602.040100 671.298767,599.985474 671.840027,598.197571   C677.089172,580.861389 682.449097,563.557190 687.490601,546.160706   C688.860779,541.432800 691.025940,539.289062 696.233093,539.523621   C707.475098,540.029968 706.306885,538.017944 709.710632,549.566711   C714.547791,565.978943 719.478821,582.363770 724.427551,598.742737   C724.886780,600.262756 724.927673,602.065186 726.468140,603.120850   C728.480713,602.755676 728.394470,601.098999 728.757019,599.695435   C733.366699,581.848938 738.108521,564.035278 742.536438,546.143921   C743.743530,541.266541 746.009888,538.972351 751.191284,539.543091   C754.483276,539.905701 757.847839,539.557739 761.176270,539.653015   C765.999268,539.790955 767.175049,541.173584 765.937378,545.864868   C763.436707,555.343262 760.768860,564.778992 758.064148,574.201965   C751.875671,595.761230 745.508362,617.270264 739.487915,638.876038   C738.173096,643.594543 735.775635,645.278320 731.010132,645.265808   C718.089294,645.231812 718.128357,645.368774 714.453308,632.884949   C709.854126,617.262207 705.208679,601.652893 700.497925,586.063538   C700.052979,584.590942 700.068726,582.681335 698.128296,581.897888   C695.905090,582.888428 696.052429,585.209412 695.517151,586.969604   C690.392761,603.820435 685.387634,620.707581 680.381897,637.594299   C678.289368,644.653442 677.663147,645.164185 670.323120,645.169922   C658.538879,645.179077 658.495667,645.191406 655.208313,633.649536   C646.925232,604.567017 638.680664,575.473633 630.431030,546.381592   C628.871216,540.880981 629.686523,539.733337 635.217712,539.640747   C638.381348,539.587769 641.546509,539.619995 644.710938,539.622375   C651.896667,539.627930 652.498108,540.081360 654.332458,546.904724   C654.720337,548.347412 655.070312,549.800293 655.547607,551.640503  z" stroke="none" opacity="1.000000" fill="#2a9d8f"/>
<path d="M861.167847,644.405396   C855.670471,645.820190 850.495972,645.066711 845.355835,645.124207   C842.058472,645.161133 840.536865,642.515808 838.973511,640.138367   C827.170471,622.188477 815.393433,604.221497 803.554810,586.295105   C802.397339,584.542542 801.600281,582.414551 799.453003,581.346252   C797.515625,582.713501 798.337158,584.708313 798.332703,586.367798   C798.285828,603.862427 798.187073,621.359436 798.442932,638.850830   C798.514587,643.749390 796.690735,645.370056 792.026978,645.245056   C777.919006,644.866760 776.944397,647.927185 777.013672,630.335388   C777.117371,604.010742 776.929993,577.684998 776.902100,551.359680   C776.889709,539.626892 776.948120,540.022705 788.244202,539.481384   C794.692871,539.172302 798.510071,541.251404 801.963867,546.742981   C813.311157,564.784668 825.225342,582.469849 836.923706,600.290771   C837.728149,601.516296 838.177490,603.043396 840.023132,603.785034   C841.680603,602.019836 840.921875,599.775391 840.919495,597.814880   C840.898865,580.653564 840.745605,563.492493 840.693481,546.331177   C840.674744,540.166809 841.179443,539.702759 847.136780,539.640198   C850.635254,539.603455 854.140076,539.767151 857.631775,539.610779   C861.016846,539.459106 862.535461,540.924927 862.587524,544.258484   C862.699341,551.418457 862.990784,558.576599 863.030212,565.736511   C863.162415,589.728882 863.226990,613.721741 863.282349,637.714478   C863.287598,639.989746 863.785706,642.464417 861.167847,644.405396  z" stroke="none" opacity="1.000000" fill="#2a9d8f"/>
<path d="M597.377808,642.612793   C566.658691,655.875549 531.551086,637.249451 525.800354,604.648743   C521.627502,580.992798 527.284973,560.503479 547.870667,546.248413   C579.081665,524.635559 623.009827,544.655457 628.512085,582.271118   C632.566101,609.986694 619.033142,632.960266 597.377808,642.612793  M582.492554,560.987427   C574.980347,559.368286 567.950012,560.619995 561.444336,564.660217   C546.112244,574.181946 542.499817,598.344238 554.152893,613.213684   C565.780945,628.051392 587.339417,628.205322 599.080078,613.483093   C604.795776,606.315857 606.115173,597.978577 605.726013,589.041931   C605.146667,575.740906 596.290161,564.509766 582.492554,560.987427  z" stroke="none" opacity="1.000000" fill="#2a9d8f"/>
<path d="M680.544006,488.400452   C678.282043,481.232971 673.428345,479.640717 666.809631,480.244110   C662.986267,480.592651 661.384094,481.956329 661.399963,485.686279   C661.436096,494.177948 661.160950,502.676941 661.434082,511.159363   C661.591492,516.050293 659.657715,517.748352 654.973267,517.429382   C651.158142,517.169556 647.309998,517.304749 643.479370,517.390747   C640.169373,517.464966 638.593811,516.103699 638.599243,512.662659   C638.650024,480.668365 638.652039,448.673920 638.624451,416.679565   C638.622009,413.833405 639.904968,411.996399 642.647583,412.019836   C660.739746,412.174286 679.016174,409.967682 696.789185,414.943359   C713.617432,419.654480 720.618652,436.064819 718.943726,450.753723   C717.525208,463.194885 711.745239,472.346771 699.807312,477.634735   C704.366272,485.798096 708.724365,493.594818 713.075134,501.395721   C714.778992,504.450775 716.506165,507.493805 718.152588,510.579712   C721.207520,516.305542 720.501160,516.615723 713.890381,517.508667   C700.785278,519.278748 691.394653,516.058472 687.461365,502.079590   C686.136292,497.370270 683.014404,493.166534 680.544006,488.400452  M661.914490,444.529236   C661.916748,448.683167 661.881897,452.837616 661.937134,456.990845   C661.964661,459.059723 662.277405,461.428314 664.855347,461.453369   C672.455566,461.527191 680.180237,462.775543 687.601257,460.256561   C693.863953,458.130768 696.928711,451.264526 695.549316,443.270355   C694.445374,436.872070 690.314331,433.362091 683.386230,433.111542   C679.735168,432.979462 676.076355,433.051300 672.421082,433.048920   C660.644592,433.041229 662.053955,432.470245 661.914490,444.529236  z" stroke="none" opacity="1.000000" fill="#2a9d8f"/>
<path d="M553.671265,411.877197   C559.727539,411.590118 560.126160,415.341431 560.124451,419.496490   C560.116638,438.657928 560.035889,457.820190 560.186584,476.980530   C560.302368,491.707062 571.035034,499.573822 585.339905,495.681671   C593.814575,493.375854 598.604248,486.528137 598.637939,476.318481   C598.701050,457.157227 598.653503,437.995575 598.668152,418.834106   C598.673096,412.403534 599.126038,411.925873 605.371643,411.881104   C609.202637,411.853638 613.036743,411.867920 616.865173,411.992767   C619.801453,412.088531 621.372253,413.483307 621.362488,416.692139   C621.293518,439.352264 621.735046,462.023529 621.151794,484.669037   C620.776062,499.256439 608.321167,512.580383 592.259216,517.512451   C573.518799,523.267029 552.845337,516.237366 542.404968,500.465881   C538.745544,494.937897 536.711914,488.791046 536.690735,482.139374   C536.623413,460.978638 536.651855,439.817566 536.675415,418.656647   C536.682129,412.633118 537.486755,411.901093 543.713501,411.874298   C546.879272,411.860687 550.045166,411.871948 553.671265,411.877197  z" stroke="none" opacity="1.000000" fill="#2a9d8f"/>
<path d="M792.915039,411.879089   C804.053040,411.853485 804.091125,411.892517 804.064026,422.799011   C804.063599,422.965485 804.063782,423.131989 804.063049,423.298462   C804.018921,433.273621 803.916748,433.372833 794.170776,433.366852   C784.515015,433.360931 774.856873,433.492371 765.204712,433.307098   C761.032715,433.227051 758.985901,434.465790 759.288208,438.991547   C759.576050,443.300842 759.463135,447.647980 759.319580,451.971588   C759.205322,455.410736 760.670105,456.733887 764.070496,456.694366   C773.225525,456.587860 782.389099,456.874115 791.536255,456.587860   C796.175659,456.442688 797.660156,458.438904 797.939209,462.691650   C798.877808,476.996979 798.656311,477.317535 784.517456,477.311646   C777.858337,477.308868 771.194336,477.465942 764.541931,477.255066   C760.681702,477.132690 759.191956,478.467224 759.284607,482.431702   C759.494385,491.416595 759.352356,500.409821 759.342468,509.399658   C759.333862,517.228516 759.211365,517.351013 751.621887,517.380615   C748.958252,517.390991 746.294556,517.391724 743.630920,517.384338   C736.457092,517.364380 735.775452,516.678223 735.766418,509.261414   C735.755066,499.938690 735.786865,490.615875 735.787537,481.293121   C735.788940,461.149231 735.774963,441.005371 735.782593,420.861481   C735.785706,412.685120 736.508606,411.895874 744.482605,411.876526   C760.464417,411.837708 776.446411,411.872101 792.915039,411.879089  z" stroke="none" opacity="1.000000" fill="#2a9d8f"/>
<path d="M455.011261,561.343689   C441.001892,561.219177 442.720917,562.821594 442.671936,549.218994   C442.633911,538.665771 441.684875,539.641968 452.384094,539.575378   C473.842010,539.441956 495.300171,539.344482 516.757568,539.157043   C521.003357,539.119934 523.211548,540.563721 523.168457,545.229858   C522.991089,564.423218 524.540100,561.122192 507.829529,561.310547   C494.353851,561.462402 494.350159,561.347595 494.348755,574.765503   C494.346558,595.921875 494.362823,617.078308 494.338531,638.234680   C494.331604,644.253235 493.396210,645.144897 487.363556,645.197510   C484.198669,645.225098 481.032928,645.243469 477.868347,645.203735   C472.469543,645.135986 471.005280,643.810913 470.954254,638.416138   C470.850311,627.422363 470.904755,616.427124 470.888916,605.432495   C470.870422,592.605469 470.724213,579.776855 470.892426,566.952271   C470.950012,562.560852 469.307159,560.926147 464.996948,561.290466   C461.854187,561.556091 458.670929,561.343323 455.011261,561.343689  z" stroke="none" opacity="1.000000" fill="#2a9d8f"/>
<path d="M451.183228,433.969055   C442.877777,433.811462 442.027313,432.802155 442.726990,425.211212   C442.959290,422.691132 443.794769,421.202087 446.523163,420.943726   C450.895142,420.529663 454.394318,418.410889 457.023499,414.909637   C458.822601,412.513794 461.385254,411.958344 464.111694,411.951447   C481.754517,411.906891 499.397614,411.943787 517.040222,411.872040   C521.230713,411.855011 523.168823,413.698547 523.053284,417.903381   C522.957214,421.395721 523.018188,424.893951 523.076538,428.388489   C523.139343,432.151764 521.207703,433.899384 517.581360,433.927673   C511.922791,433.971802 506.254822,434.164917 500.607758,433.913910   C495.914429,433.705292 494.196564,435.334534 494.241943,440.227570   C494.458099,463.527924 494.348846,486.831329 494.336639,510.133667   C494.332916,517.231873 494.194153,517.346802 486.992004,517.377625   C483.829620,517.391174 480.651520,517.179749 477.508270,517.425171   C472.733795,517.797852 470.864899,515.688416 470.916107,511.039642   C471.029846,500.721375 470.948486,490.400909 470.941132,480.081360   C470.931580,466.599365 470.799011,453.115845 470.971893,439.636230   C471.027649,435.290924 469.497864,433.631012 465.137512,433.912628   C460.662323,434.201691 456.153625,433.972595 451.183228,433.969055  z" stroke="none" opacity="1.000000" fill="#2a9d8f"/>
<path d="M365.348053,516.000122   C365.347565,534.491760 365.220856,552.484863 365.434448,570.473938   C365.488068,574.986206 364.196777,576.541809 359.539551,576.461792   C344.384430,576.201294 329.221771,576.318848 314.062653,576.403442   C310.820251,576.421509 309.010406,575.867981 308.489777,571.949341   C306.826324,559.428345 294.441193,551.894348 282.687500,548.393860   C268.660553,544.216309 246.653687,556.340088 243.880051,571.967651   C243.267075,575.421387 241.682724,576.487427 238.204468,576.448059   C222.380493,576.269104 206.552246,576.258545 190.728302,576.435730   C186.745819,576.480225 185.583710,575.072571 185.598740,571.219482   C185.713837,541.733643 185.716949,512.246948 185.589188,482.761230   C185.572311,478.868683 186.765060,477.478851 190.722839,477.582123   C199.712570,477.816711 208.714371,477.765533 217.707382,477.608459   C221.163101,477.548096 222.388763,478.765411 222.323105,482.249939   C222.147385,491.575500 222.225754,500.907013 222.291885,510.235535   C222.331894,515.878723 224.809174,518.542786 230.425613,518.689636   C237.584381,518.876892 244.751953,518.870056 251.912918,518.761780   C254.787109,518.718384 256.923126,519.323120 258.671234,521.907959   C265.861603,532.539734 287.669586,532.678772 294.579376,521.818542   C296.153381,519.344666 298.218536,518.767578 300.904602,518.805298   C306.900177,518.889526 312.900269,518.892334 318.894684,518.756897   C325.815918,518.600586 328.597229,515.774658 328.644592,508.967529   C328.706024,500.138702 328.807678,491.306427 328.622162,482.481323   C328.544281,478.777588 329.874420,477.518463 333.542480,477.595703   C342.534332,477.785126 351.535583,477.791565 360.527252,477.599915   C364.233582,477.520905 365.461243,478.852112 365.403961,482.516907   C365.232208,493.508911 365.345703,504.505341 365.348053,516.000122  z" stroke="none" opacity="1.000000" fill="#2a9d8f"/>
<path d="M262.759277,664.307373   C247.585571,654.908813 232.744461,645.664429 217.863266,636.485229   C200.411041,625.720032 191.529114,609.275879 186.943604,589.981079   C186.686813,588.900513 186.910416,587.705811 186.910416,586.739685   C188.768402,585.294739 190.668350,585.692871 192.455444,585.688782   C207.450027,585.654602 222.445633,585.760376 237.438705,585.606262   C241.209854,585.567505 242.710144,586.543518 243.634705,590.617981   C247.691315,608.494934 267.283844,619.422119 284.868713,614.889832   C298.540070,611.366150 306.501923,603.269531 308.846619,589.441895   C309.153809,587.630249 309.641449,585.735291 312.113983,585.734802   C329.403931,585.731506 346.693878,585.733093 364.477966,585.733093   C364.316895,593.683899 361.905396,600.528198 358.975861,607.153137   C352.939423,620.804138 343.466064,631.388733 330.485382,638.973022   C315.965393,647.456726 301.333771,655.825928 287.401062,665.210510   C278.522217,671.190796 270.994629,671.310120 262.759277,664.307373  z" stroke="none" opacity="1.000000" fill="#2a9d8f"/>
<path d="M319.347504,492.004822   C319.336975,496.835175 319.300934,501.167542 319.326019,505.499573   C319.339203,507.777374 318.791748,509.374542 316.032654,509.363037   C288.215698,509.246979 260.398621,509.170044 232.581619,509.070709   C232.443771,509.070190 232.306503,508.906372 231.804474,508.586731   C231.804474,498.611420 231.804474,488.403290 231.804474,478.040680   C232.915924,477.890320 233.720123,477.716248 234.530289,477.681702   C246.530426,477.169678 246.530609,477.174103 247.000580,488.897614   C247.251404,495.154297 249.679642,497.631439 255.950485,497.664795   C268.947113,497.733978 281.944550,497.736877 294.941284,497.682251   C301.896271,497.653046 304.610413,494.884186 304.679016,488.045105   C304.690735,486.878815 304.679993,485.712311 304.685242,484.545929   C304.716187,477.679535 304.716736,477.679535 311.508240,477.659302   C319.340576,477.635956 319.341003,477.635956 319.347961,485.507965   C319.349701,487.507538 319.347656,489.507141 319.347504,492.004822  z" stroke="none" opacity="1.000000" fill="#2a9d8f"/>
<path d="M252.991455,586.142639   C268.795380,585.927673 284.239777,585.927673 299.636078,585.927673   C300.247650,592.711365 296.468414,600.301514 290.591217,602.723022   C275.719910,608.850037 267.134125,610.257019 255.079086,594.150635   C253.406937,591.916504 251.832291,589.458984 252.991455,586.142639  z" stroke="none" opacity="1.000000" fill="#2a9d8f"/>
<path d="M260.180054,576.376343   C257.450958,576.151917 255.049881,576.976196 252.970978,575.530823   C253.381470,566.554932 266.008942,556.476440 276.539978,556.637024   C287.410797,556.802795 299.055389,566.416260 299.370667,576.375427   C286.457947,576.375427 273.555664,576.375427 260.180054,576.376343  z" stroke="none" opacity="1.000000" fill="#2a9d8f"/>
<path d="M280.993622,488.355103   C273.836578,488.347717 267.171570,488.159393 260.521454,488.393738   C256.009308,488.552704 255.995697,485.890015 255.848633,482.623138   C255.687408,479.041351 256.795929,477.526886 260.608459,477.598633   C270.759369,477.789612 280.919159,477.809814 291.069275,477.600525   C295.372650,477.511841 295.372375,479.957916 295.376953,483.033783   C295.381653,486.163788 295.213837,488.713135 290.977264,488.403168   C287.831177,488.173035 284.654846,488.355499 280.993622,488.355103  z" stroke="none" opacity="1.000000" fill="#2a9d8f"/>
<path d="M282.082275,521.022583   C277.748169,521.201416 273.696014,522.186157 269.931183,520.463806   C269.923279,519.963501 269.915344,519.463257 269.907410,518.962952   C274.104523,518.962952 278.308929,518.827698 282.493958,519.052490   C283.621918,519.113098 283.046600,520.238831 282.082275,521.022583  z" stroke="none" opacity="1.000000" fill="#2a9d8f"/>
</svg>